<svg aria-hidden="true" style="width:0;height:0;position:absolute;overflow:hidden" xmlns="http://www.w3.org/2000/svg"><defs><symbol id="icon-burger" viewBox="0 0 59 32"><path stroke-linecap="round" stroke-width="4" d="M2 3.333h54.667M2 29h54.667"/></symbol><symbol id="icon-cross" viewBox="0 0 34 32"><path stroke-linecap="round" stroke-width="2.824" d="m2.843 1.453 27.286 27.286M3.509 29.33 30.795 2.044"/></symbol><symbol id="icon-boltaeva" viewBox="0 0 29 32"><path d="M24.197 6.549h-2.92c-.146-1.645-.933-3.178-2.207-4.296S16.129.516 14.399.516c-1.73 0-3.397.62-4.671 1.737s-2.061 2.65-2.207 4.296h-2.92c-1.083 0-2.121.41-2.887 1.141S.518 9.412.518 10.445v17.143c0 1.033.43 2.024 1.196 2.755s1.804 1.141 2.887 1.141h19.595c1.083 0 2.121-.411 2.887-1.141s1.196-1.722 1.196-2.755V10.445c0-1.033-.43-2.024-1.196-2.755s-1.804-1.141-2.887-1.141zM14.4 2.069c1.298.004 2.549.462 3.515 1.288s1.582 1.962 1.73 3.192H9.155c.147-1.23.763-2.366 1.729-3.192s2.218-1.284 3.515-1.288zm12.247 25.519c0 .62-.258 1.215-.717 1.653s-1.082.685-1.732.685H4.603c-.65 0-1.273-.246-1.732-.685s-.717-1.033-.717-1.653V10.445c0-.62.258-1.215.717-1.653s1.082-.685 1.732-.685h19.595c.65 0 1.272.246 1.732.685s.717 1.033.717 1.653v17.143z"/><path d="M21.738 6.033h2.459c1.214 0 2.383.46 3.248 1.285s1.355 1.95 1.355 3.127v17.143c0 1.177-.49 2.301-1.355 3.127S25.412 32 24.197 32H4.602c-1.214 0-2.383-.46-3.247-1.285S0 28.765 0 27.588V10.445c0-1.177.49-2.301 1.355-3.127s2.033-1.285 3.247-1.285h2.459a7.02 7.02 0 0 1 2.322-4.166C10.754.665 12.544 0 14.399 0s3.645.665 5.016 1.867a7.015 7.015 0 0 1 2.322 4.166zm-.46.516h2.92c1.083 0 2.121.41 2.887 1.141s1.196 1.722 1.196 2.755v17.143c0 1.033-.43 2.024-1.196 2.755s-1.804 1.141-2.887 1.141H4.603c-1.083 0-2.121-.411-2.887-1.141S.52 28.621.52 27.588V10.445c0-1.033.43-2.024 1.196-2.755S3.52 6.549 4.603 6.549h2.92c.146-1.645.933-3.178 2.207-4.296S12.671.516 14.401.516c1.73 0 3.397.62 4.671 1.737s2.061 2.65 2.207 4.296zm-3.702-2.801a4.92 4.92 0 0 0-6.352 0 4.505 4.505 0 0 0-1.443 2.285h9.238a4.497 4.497 0 0 0-1.443-2.285zm1.979 2.285a5.007 5.007 0 0 0-1.639-2.676 5.442 5.442 0 0 0-7.03 0 5.007 5.007 0 0 0-1.639 2.676c-.039.17-.069.342-.09.516h10.49a4.968 4.968 0 0 0-.09-.516zm6.013 22.836a1.77 1.77 0 0 0 .558-1.281V10.445c0-.477-.198-.938-.558-1.281s-.853-.54-1.371-.54H4.602c-.518 0-1.011.197-1.371.54s-.558.805-.558 1.281v17.143c0 .476.198.938.558 1.281s.853.54 1.371.54h19.595c.518 0 1.011-.196 1.371-.54zm.361.372a2.285 2.285 0 0 0 .717-1.653V10.445c0-.62-.258-1.215-.717-1.653s-1.082-.685-1.732-.685H4.602c-.65 0-1.273.246-1.732.685s-.717 1.033-.717 1.653v17.143c0 .62.258 1.215.717 1.653s1.082.685 1.732.685h19.595c.65 0 1.272-.246 1.732-.685z"/></symbol><symbol id="icon-basket" viewBox="0 0 343 32"><path d="M0 .694h14.586c5.901 0 9.893 1.904 9.893 7.663 0 3.117-1.432 5.108-4.208 6.453 3.82 1.082 5.685 3.991 5.685 7.834 0 6.282-5.337 8.964-10.937 8.964H.001V.694zm6.801 12.512h6.913c2.432 0 4.168-1.082 4.168-3.68 0-2.901-2.256-3.54-4.681-3.54H6.8v7.22zm0 13.135h7.305c2.648 0 5.037-.866 5.037-4.071s-1.94-4.43-4.905-4.43H6.801v8.501zM59.11 32c-3.173-.005-6.272-.948-8.907-2.711s-4.687-4.265-5.896-7.191a15.968 15.968 0 0 1 3.508-17.432 16.071 16.071 0 0 1 17.487-3.435c2.928 1.217 5.429 3.274 7.186 5.909s2.691 5.731 2.684 8.896a15.933 15.933 0 0 1-4.708 11.309c-1.492 1.483-3.264 2.658-5.212 3.456s-4.035 1.206-6.142 1.198zm-9.461-15.964a9.375 9.375 0 0 0 2.69 6.771c.877.893 1.924 1.603 3.08 2.087a9.453 9.453 0 0 0 7.3 0 9.412 9.412 0 0 0 5.109-5.202 9.37 9.37 0 0 0 .66-3.656c0-5.152-4.212-9.483-9.377-9.483-2.505.03-4.898 1.038-6.666 2.808s-2.772 4.16-2.795 6.659v.016zM94.914 31.393V.563h6.697v25.115h15.886v5.715H94.915zM141.699 6.41h-9.853V.739h26.435v5.715h-9.769v25.143h-6.801l-.012-25.187zM173.339 31.609 187.4.739h6.857l13.845 30.87h-6.597l-3.036-6.84h-15.65l-3.276 6.84h-6.205zm17.578-25.072-5.2 11.973h10.285l-5.04-11.973h-.044zM232.754 19.269v6.581h17.488v5.715h-24.086V.563h22.611v5.715h-16.002v6.972h14.149v6.018h-14.16zM285.959 31.609h-7.68L268.208.695h7.022l6.912 21.735h.085L289.233.695h7.033L285.96 31.609zM308.094 31.609 322.156.735h6.857l13.845 30.874h-6.597l-3.024-6.84h-15.682l-3.257 6.84h-6.203zm17.577-25.072-5.2 11.973h10.286l-5.042-11.973h-.043z"/></symbol></defs></svg>