<svg aria-hidden="true" style="position: absolute; width: 0; height: 0; overflow: hidden;" version="1.1" xmlns="http://www.w3.org/2000/svg" xmlns:xlink="http://www.w3.org/1999/xlink">
<defs>

<symbol id="icon-burger" viewBox="0 0 59 32">
<path stroke-linejoin="miter" stroke-linecap="round" stroke-miterlimit="4" stroke-width="4" d="M2 3.333h54.667"></path>
<path stroke-linejoin="miter" stroke-linecap="round" stroke-miterlimit="4" stroke-width="4" d="M2 29h54.667"></path>
</symbol>

<symbol id="icon-cross" viewBox="0 0 34 32">
<path stroke-linejoin="miter" stroke-linecap="round" stroke-miterlimit="4" stroke-width="2.8235" d="M2.843 1.453l27.286 27.286"></path>
<path stroke-linejoin="miter" stroke-linecap="round" stroke-miterlimit="4" stroke-width="2.8235" d="M3.509 29.33l27.286-27.286"></path>
</symbol>

<symbol id="icon-boltaeva" viewBox="0 0 29 32">
<path d="M24.197 6.549h-2.92c-0.146-1.645-0.933-3.178-2.207-4.296s-2.941-1.737-4.671-1.737c-1.73 0-3.397 0.62-4.671 1.737s-2.061 2.65-2.207 4.296h-2.92c-1.083 0-2.121 0.41-2.887 1.141s-1.196 1.722-1.196 2.755v17.143c0 1.033 0.43 2.024 1.196 2.755s1.804 1.141 2.887 1.141h19.595c1.083 0 2.121-0.411 2.887-1.141s1.196-1.722 1.196-2.755v-17.143c0-1.033-0.43-2.024-1.196-2.755s-1.804-1.141-2.887-1.141zM14.4 2.069c1.298 0.004 2.549 0.462 3.515 1.288s1.582 1.962 1.73 3.192h-10.49c0.147-1.23 0.763-2.366 1.729-3.192s2.218-1.284 3.515-1.288zM26.647 27.588c0 0.62-0.258 1.215-0.717 1.653s-1.082 0.685-1.732 0.685h-19.595c-0.65 0-1.273-0.246-1.732-0.685s-0.717-1.033-0.717-1.653v-17.143c0-0.62 0.258-1.215 0.717-1.653s1.082-0.685 1.732-0.685h19.595c0.65 0 1.272 0.246 1.732 0.685s0.717 1.033 0.717 1.653v17.143z"></path>
<path d="M21.738 6.033h2.459c1.214 0 2.383 0.46 3.248 1.285s1.355 1.95 1.355 3.127v17.143c0 1.177-0.49 2.301-1.355 3.127s-2.033 1.285-3.248 1.285h-19.595c-1.214 0-2.383-0.46-3.247-1.285s-1.355-1.95-1.355-3.127v-17.143c0-1.177 0.49-2.301 1.355-3.127s2.033-1.285 3.247-1.285h2.459c0.255-1.599 1.073-3.070 2.322-4.166 1.371-1.202 3.161-1.867 5.016-1.867s3.645 0.665 5.016 1.867c1.249 1.096 2.068 2.567 2.322 4.166zM21.278 6.549h2.92c1.083 0 2.121 0.41 2.887 1.141s1.196 1.722 1.196 2.755v17.143c0 1.033-0.43 2.024-1.196 2.755s-1.804 1.141-2.887 1.141h-19.595c-1.083 0-2.121-0.411-2.887-1.141s-1.196-1.722-1.196-2.755v-17.143c0-1.033 0.43-2.024 1.196-2.755s1.804-1.141 2.887-1.141h2.92c0.146-1.645 0.933-3.178 2.207-4.296s2.941-1.737 4.671-1.737c1.73 0 3.397 0.62 4.671 1.737s2.061 2.65 2.207 4.296zM17.576 3.748c-0.871-0.744-2.001-1.159-3.176-1.163-1.175 0.004-2.305 0.419-3.176 1.163-0.716 0.612-1.215 1.41-1.443 2.285h9.238c-0.228-0.876-0.727-1.674-1.443-2.285zM19.555 6.033c-0.238-1.030-0.809-1.967-1.639-2.676-0.967-0.826-2.218-1.284-3.515-1.288-1.298 0.004-2.548 0.462-3.515 1.288-0.83 0.709-1.401 1.646-1.639 2.676-0.039 0.17-0.069 0.342-0.090 0.516h10.49c-0.021-0.174-0.051-0.346-0.090-0.516zM25.568 28.869c0.36-0.343 0.558-0.805 0.558-1.281v-17.143c0-0.477-0.198-0.938-0.558-1.281s-0.853-0.54-1.371-0.54h-19.595c-0.518 0-1.011 0.197-1.371 0.54s-0.558 0.805-0.558 1.281v17.143c0 0.476 0.198 0.938 0.558 1.281s0.853 0.54 1.371 0.54h19.595c0.518 0 1.011-0.196 1.371-0.54zM25.929 29.241c0.459-0.438 0.717-1.033 0.717-1.653v-17.143c0-0.62-0.258-1.215-0.717-1.653s-1.082-0.685-1.732-0.685h-19.595c-0.65 0-1.273 0.246-1.732 0.685s-0.717 1.033-0.717 1.653v17.143c0 0.62 0.258 1.215 0.717 1.653s1.082 0.685 1.732 0.685h19.595c0.65 0 1.272-0.246 1.732-0.685z"></path>
</symbol>

<symbol id="icon-basket" viewBox="0 0 343 32">
<path d="M0 0.694h14.586c5.901 0 9.893 1.904 9.893 7.663 0 3.117-1.432 5.108-4.208 6.453 3.82 1.082 5.685 3.991 5.685 7.834 0 6.282-5.337 8.964-10.937 8.964h-15.018v-30.914zM6.801 13.206h6.913c2.432 0 4.168-1.082 4.168-3.68 0-2.901-2.256-3.54-4.681-3.54h-6.401v7.22zM6.801 26.341h7.305c2.648 0 5.037-0.866 5.037-4.071s-1.94-4.43-4.905-4.43h-7.437v8.501z"></path>
<path d="M59.11 32c-3.173-0.005-6.272-0.948-8.907-2.711s-4.687-4.265-5.896-7.191c-1.209-2.926-1.521-6.144-0.897-9.247s2.157-5.952 4.405-8.185c2.248-2.234 5.109-3.752 8.221-4.364s6.337-0.288 9.266 0.929c2.928 1.217 5.429 3.274 7.186 5.909s2.691 5.731 2.684 8.896c0 2.101-0.416 4.182-1.224 6.123s-1.992 3.703-3.484 5.186c-1.492 1.483-3.264 2.658-5.212 3.456s-4.035 1.206-6.142 1.198zM49.649 16.036c-0.026 1.25 0.199 2.493 0.661 3.656s1.151 2.222 2.029 3.115c0.877 0.893 1.924 1.603 3.080 2.087s2.397 0.734 3.65 0.734 2.494-0.25 3.65-0.734c1.156-0.484 2.203-1.194 3.080-2.087s1.567-1.952 2.029-3.115 0.686-2.405 0.66-3.656c0-5.152-4.212-9.483-9.377-9.483-2.505 0.030-4.898 1.038-6.666 2.808s-2.772 4.16-2.795 6.659v0.016z"></path>
<path d="M94.914 31.393v-30.83h6.697v25.115h15.886v5.715h-22.582z"></path>
<path d="M141.699 6.41h-9.853v-5.671h26.435v5.715h-9.769v25.143h-6.801l-0.012-25.187z"></path>
<path d="M173.339 31.609l14.061-30.87h6.857l13.845 30.87h-6.597l-3.036-6.84h-15.65l-3.276 6.84h-6.205zM190.917 6.537l-5.2 11.973h10.285l-5.040-11.973h-0.044z"></path>
<path d="M232.754 19.269v6.581h17.488v5.715h-24.086v-31.002h22.611v5.715h-16.002v6.972h14.149v6.018h-14.16z"></path>
<path d="M285.959 31.609h-7.68l-10.071-30.914h7.022l6.912 21.735h0.085l7.006-21.735h7.033l-10.306 30.914z"></path>
<path d="M308.094 31.609l14.062-30.874h6.857l13.845 30.874h-6.597l-3.024-6.84h-15.682l-3.257 6.84h-6.203zM325.671 6.537l-5.2 11.973h10.286l-5.042-11.973h-0.043z"></path>
</symbol>

</defs>
</svg>
